# This file uses centimeters as units for non-parametric coordinates.

mtllib Escalera.mtl
g default
v -110.199585 0.245259 -49.309022
v -110.199585 0.252222 -49.941812
v -110.199585 22.216359 -49.067229
v -110.199585 22.223324 -49.700019
v -110.770676 22.216359 -49.067229
v -110.770676 22.223324 -49.700019
v -110.770676 0.245259 -49.309022
v -110.770676 0.252222 -49.941812
v -110.378456 19.470323 -49.177081
v -106.540459 19.463609 -49.259751
v -110.378456 19.885992 -49.210837
v -106.540459 19.879278 -49.293508
v -110.386391 19.856280 -49.576709
v -106.548393 19.849566 -49.659380
v -110.386391 19.440610 -49.542953
v -106.548393 19.433897 -49.625624
v -106.368576 0.245259 -49.309022
v -106.368576 0.252222 -49.941812
v -106.368576 22.216359 -49.067229
v -106.368576 22.223324 -49.700019
v -106.939667 22.216359 -49.067229
v -106.939667 22.223324 -49.700019
v -106.939667 0.245259 -49.309022
v -106.939667 0.252222 -49.941812
v -110.378456 16.450361 -49.175573
v -106.540459 16.443648 -49.258244
v -110.378456 16.866031 -49.209330
v -106.540459 16.859317 -49.292001
v -110.386391 16.836319 -49.575202
v -106.548393 16.829605 -49.657873
v -110.386391 16.420649 -49.541446
v -106.548393 16.413935 -49.624117
v -110.378456 13.426005 -49.228205
v -106.540459 13.419291 -49.310876
v -110.378456 13.841672 -49.261962
v -106.540459 13.834959 -49.344633
v -110.386391 13.811960 -49.627834
v -106.548393 13.805246 -49.710505
v -110.386391 13.396292 -49.594078
v -106.548393 13.389579 -49.676749
v -110.378456 10.406811 -49.217254
v -106.540459 10.400098 -49.299925
v -110.378456 10.822479 -49.251010
v -106.540459 10.815765 -49.333681
v -110.386391 10.792767 -49.616882
v -106.548393 10.786053 -49.699553
v -110.386391 10.377099 -49.583126
v -106.548393 10.370385 -49.665797
v -110.378456 7.377095 -49.335873
v -106.540459 7.370382 -49.418543
v -110.378456 7.792763 -49.369629
v -106.540459 7.786049 -49.452300
v -110.386391 7.763051 -49.735501
v -106.548393 7.756337 -49.818172
v -110.386391 7.347383 -49.701745
v -106.548393 7.340669 -49.784416
v -110.378456 4.357330 -49.331959
v -106.540459 4.350617 -49.414629
v -110.378456 4.772998 -49.365715
v -106.540459 4.766284 -49.448386
v -110.386391 4.743285 -49.731587
v -106.548393 4.736572 -49.814258
v -110.386391 4.327618 -49.697831
v -106.548393 4.320904 -49.780502
v -110.378456 1.327301 -49.454433
v -106.540459 1.320587 -49.537104
v -110.378456 1.742969 -49.488189
v -106.540459 1.736255 -49.570860
v -110.386391 1.713256 -49.854062
v -106.548393 1.706543 -49.936732
v -110.386391 1.297588 -49.820305
v -106.548393 1.290875 -49.902976
vt 0.070355 0.001992
vt 0.110169 0.001992
vt 0.110169 0.998008
vt 0.070355 0.998008
vt 0.116224 0.001992
vt 0.156039 0.001992
vt 0.156039 0.998008
vt 0.116224 0.998008
vt 0.177224 0.015131
vt 0.190951 0.015131
vt 0.190951 0.054945
vt 0.177224 0.054945
vt 0.193905 0.015131
vt 0.207632 0.015131
vt 0.207632 0.054945
vt 0.193905 0.054945
vt 0.000450 0.001992
vt 0.029137 0.001992
vt 0.029137 0.998008
vt 0.000450 0.998008
vt 0.035494 0.001992
vt 0.064181 0.001992
vt 0.064181 0.998008
vt 0.035494 0.998008
vt 0.179008 0.206366
vt 0.179008 0.063123
vt 0.198707 0.063123
vt 0.198707 0.206366
vt 0.199576 0.206366
vt 0.199576 0.063123
vt 0.235242 0.063123
vt 0.235242 0.206366
vt 0.179097 0.406663
vt 0.179097 0.214946
vt 0.205463 0.214946
vt 0.205463 0.406663
vt 0.175160 0.609001
vt 0.175160 0.417284
vt 0.222896 0.417284
vt 0.222896 0.609001
vt 0.213992 0.311556
vt 0.213992 0.229430
vt 0.235698 0.229430
vt 0.235698 0.311556
vt 0.214286 0.402414
vt 0.214286 0.320289
vt 0.235992 0.320289
vt 0.235992 0.402414
vt 0.000450 0.001992
vt 0.029137 0.001992
vt 0.029137 0.998008
vt 0.000450 0.998008
vt 0.177224 0.015131
vt 0.190951 0.015131
vt 0.190951 0.054945
vt 0.177224 0.054945
vt 0.035494 0.001992
vt 0.064181 0.001992
vt 0.064181 0.998008
vt 0.035494 0.998008
vt 0.193905 0.015131
vt 0.207632 0.015131
vt 0.207632 0.054945
vt 0.193905 0.054945
vt 0.070355 0.001992
vt 0.110169 0.001992
vt 0.110169 0.998008
vt 0.070355 0.998008
vt 0.116224 0.001992
vt 0.156039 0.001992
vt 0.156039 0.998008
vt 0.116224 0.998008
vt 0.179008 0.206366
vt 0.179008 0.063123
vt 0.198707 0.063123
vt 0.198707 0.206366
vt 0.199576 0.206366
vt 0.199576 0.063123
vt 0.235242 0.063123
vt 0.235242 0.206366
vt 0.179097 0.406663
vt 0.179097 0.214946
vt 0.205463 0.214946
vt 0.205463 0.406663
vt 0.175160 0.609001
vt 0.175160 0.417284
vt 0.222896 0.417284
vt 0.222896 0.609001
vt 0.213992 0.311556
vt 0.213992 0.229430
vt 0.235698 0.229430
vt 0.235698 0.311556
vt 0.214286 0.402414
vt 0.214286 0.320289
vt 0.235992 0.320289
vt 0.235992 0.402414
vt 0.179008 0.206366
vt 0.179008 0.063123
vt 0.198707 0.063123
vt 0.198707 0.206366
vt 0.199576 0.206366
vt 0.199576 0.063123
vt 0.235242 0.063123
vt 0.235242 0.206366
vt 0.179097 0.406663
vt 0.179097 0.214946
vt 0.205463 0.214946
vt 0.205463 0.406663
vt 0.175160 0.609001
vt 0.175160 0.417284
vt 0.222896 0.417284
vt 0.222896 0.609001
vt 0.213992 0.311556
vt 0.213992 0.229430
vt 0.235698 0.229430
vt 0.235698 0.311556
vt 0.214286 0.402414
vt 0.214286 0.320289
vt 0.235992 0.320289
vt 0.235992 0.402414
vt 0.179008 0.206366
vt 0.179008 0.063123
vt 0.198707 0.063123
vt 0.198707 0.206366
vt 0.199576 0.206366
vt 0.199576 0.063123
vt 0.235242 0.063123
vt 0.235242 0.206366
vt 0.179097 0.406663
vt 0.179097 0.214946
vt 0.205463 0.214946
vt 0.205463 0.406663
vt 0.175160 0.609001
vt 0.175160 0.417284
vt 0.222896 0.417284
vt 0.222896 0.609001
vt 0.213992 0.311556
vt 0.213992 0.229430
vt 0.235698 0.229430
vt 0.235698 0.311556
vt 0.214286 0.402414
vt 0.214286 0.320289
vt 0.235992 0.320289
vt 0.235992 0.402414
vt 0.179008 0.206366
vt 0.179008 0.063123
vt 0.198707 0.063123
vt 0.198707 0.206366
vt 0.199576 0.206366
vt 0.199576 0.063123
vt 0.235242 0.063123
vt 0.235242 0.206366
vt 0.179097 0.406663
vt 0.179097 0.214946
vt 0.205463 0.214946
vt 0.205463 0.406663
vt 0.175160 0.609001
vt 0.175160 0.417284
vt 0.222896 0.417284
vt 0.222896 0.609001
vt 0.213992 0.311556
vt 0.213992 0.229430
vt 0.235698 0.229430
vt 0.235698 0.311556
vt 0.214286 0.402414
vt 0.214286 0.320289
vt 0.235992 0.320289
vt 0.235992 0.402414
vt 0.179008 0.206366
vt 0.179008 0.063123
vt 0.198707 0.063123
vt 0.198707 0.206366
vt 0.199576 0.206366
vt 0.199576 0.063123
vt 0.235242 0.063123
vt 0.235242 0.206366
vt 0.179097 0.406663
vt 0.179097 0.214946
vt 0.205463 0.214946
vt 0.205463 0.406663
vt 0.175160 0.609001
vt 0.175160 0.417284
vt 0.222896 0.417284
vt 0.222896 0.609001
vt 0.213992 0.311556
vt 0.213992 0.229430
vt 0.235698 0.229430
vt 0.235698 0.311556
vt 0.214286 0.402414
vt 0.214286 0.320289
vt 0.235992 0.320289
vt 0.235992 0.402414
vt 0.179008 0.206366
vt 0.179008 0.063123
vt 0.198707 0.063123
vt 0.198707 0.206366
vt 0.199576 0.206366
vt 0.199576 0.063123
vt 0.235242 0.063123
vt 0.235242 0.206366
vt 0.179097 0.406663
vt 0.179097 0.214946
vt 0.205463 0.214946
vt 0.205463 0.406663
vt 0.175160 0.609001
vt 0.175160 0.417284
vt 0.222896 0.417284
vt 0.222896 0.609001
vt 0.213992 0.311556
vt 0.213992 0.229430
vt 0.235698 0.229430
vt 0.235698 0.311556
vt 0.214286 0.402414
vt 0.214286 0.320289
vt 0.235992 0.320289
vt 0.235992 0.402414
vn 1.000000 0.000000 0.000000
vn 1.000000 0.000000 0.000000
vn 1.000000 0.000000 0.000000
vn 1.000000 0.000000 0.000000
vn 0.000000 0.999940 0.011006
vn 0.000000 0.999940 0.011006
vn 0.000000 0.999940 0.011006
vn 0.000000 0.999940 0.011006
vn -1.000000 0.000000 0.000000
vn -1.000000 0.000000 0.000000
vn -1.000000 0.000000 0.000000
vn -1.000000 0.000000 0.000000
vn 0.000000 -0.999939 -0.011004
vn 0.000000 -0.999939 -0.011004
vn 0.000000 -0.999939 -0.011004
vn 0.000000 -0.999939 -0.011004
vn 0.000000 0.011004 -0.999940
vn 0.000000 0.011004 -0.999940
vn 0.000000 0.011004 -0.999940
vn 0.000000 0.011004 -0.999940
vn 0.000000 -0.011004 0.999940
vn 0.000000 -0.011004 0.999940
vn 0.000000 -0.011004 0.999940
vn 0.000000 -0.011004 0.999940
vn 0.021606 0.080924 0.996486
vn 0.021606 0.080924 0.996486
vn 0.021606 0.080924 0.996486
vn 0.021606 0.080924 0.996486
vn 0.000000 0.996719 -0.080944
vn 0.000000 0.996719 -0.080944
vn 0.000000 0.996719 -0.080944
vn 0.000000 0.996719 -0.080944
vn -0.021607 -0.080924 -0.996486
vn -0.021607 -0.080924 -0.996486
vn -0.021607 -0.080924 -0.996486
vn -0.021607 -0.080924 -0.996486
vn 0.000000 -0.996719 0.080946
vn 0.000000 -0.996719 0.080946
vn 0.000000 -0.996719 0.080946
vn 0.000000 -0.996719 0.080946
vn 0.999767 -0.001749 -0.021540
vn 0.999767 -0.001749 -0.021540
vn 0.999767 -0.001749 -0.021540
vn 0.999767 -0.001749 -0.021540
vn -0.999766 0.001749 0.021540
vn -0.999766 0.001749 0.021540
vn -0.999766 0.001749 0.021540
vn -0.999766 0.001749 0.021540
vn 1.000000 -0.000001 0.000000
vn 1.000000 -0.000001 0.000000
vn 1.000000 -0.000001 0.000000
vn 1.000000 -0.000001 0.000000
vn 0.000000 0.999940 0.011006
vn 0.000000 0.999940 0.011006
vn 0.000000 0.999940 0.011006
vn 0.000000 0.999940 0.011006
vn -1.000000 0.000000 0.000000
vn -1.000000 0.000000 0.000000
vn -1.000000 0.000000 0.000000
vn -1.000000 0.000000 0.000000
vn 0.000000 -0.999939 -0.011004
vn 0.000000 -0.999939 -0.011004
vn 0.000000 -0.999939 -0.011004
vn 0.000000 -0.999939 -0.011004
vn 0.000000 0.011004 -0.999940
vn 0.000000 0.011004 -0.999940
vn 0.000000 0.011004 -0.999940
vn 0.000000 0.011004 -0.999940
vn 0.000000 -0.011004 0.999940
vn 0.000000 -0.011004 0.999940
vn 0.000000 -0.011004 0.999940
vn 0.000000 -0.011004 0.999940
vn 0.021606 0.080924 0.996486
vn 0.021606 0.080924 0.996486
vn 0.021606 0.080924 0.996486
vn 0.021606 0.080924 0.996486
vn 0.000000 0.996719 -0.080941
vn 0.000000 0.996719 -0.080941
vn 0.000000 0.996719 -0.080941
vn 0.000000 0.996719 -0.080941
vn -0.021607 -0.080924 -0.996486
vn -0.021607 -0.080924 -0.996486
vn -0.021607 -0.080924 -0.996486
vn -0.021607 -0.080924 -0.996486
vn 0.000000 -0.996719 0.080943
vn 0.000000 -0.996719 0.080943
vn 0.000000 -0.996719 0.080943
vn 0.000000 -0.996719 0.080943
vn 0.999767 -0.001749 -0.021539
vn 0.999767 -0.001749 -0.021539
vn 0.999767 -0.001749 -0.021539
vn 0.999767 -0.001749 -0.021539
vn -0.999766 0.001749 0.021540
vn -0.999766 0.001749 0.021540
vn -0.999766 0.001749 0.021540
vn -0.999766 0.001749 0.021540
vn 0.021606 0.080924 0.996486
vn 0.021606 0.080924 0.996486
vn 0.021606 0.080924 0.996486
vn 0.021606 0.080924 0.996486
vn 0.000000 0.996719 -0.080943
vn 0.000000 0.996719 -0.080943
vn 0.000000 0.996719 -0.080943
vn 0.000000 0.996719 -0.080943
vn -0.021607 -0.080924 -0.996486
vn -0.021607 -0.080924 -0.996486
vn -0.021607 -0.080924 -0.996486
vn -0.021607 -0.080924 -0.996486
vn 0.000000 -0.996719 0.080942
vn 0.000000 -0.996719 0.080942
vn 0.000000 -0.996719 0.080942
vn 0.000000 -0.996719 0.080942
vn 0.999767 -0.001749 -0.021539
vn 0.999767 -0.001749 -0.021539
vn 0.999767 -0.001749 -0.021539
vn 0.999767 -0.001749 -0.021539
vn -0.999766 0.001749 0.021540
vn -0.999766 0.001749 0.021540
vn -0.999766 0.001749 0.021540
vn -0.999766 0.001749 0.021540
vn 0.021606 0.080924 0.996486
vn 0.021606 0.080924 0.996486
vn 0.021606 0.080924 0.996486
vn 0.021606 0.080924 0.996486
vn 0.000000 0.996719 -0.080943
vn 0.000000 0.996719 -0.080943
vn 0.000000 0.996719 -0.080943
vn 0.000000 0.996719 -0.080943
vn -0.021607 -0.080924 -0.996486
vn -0.021607 -0.080924 -0.996486
vn -0.021607 -0.080924 -0.996486
vn -0.021607 -0.080924 -0.996486
vn 0.000000 -0.996719 0.080944
vn 0.000000 -0.996719 0.080944
vn 0.000000 -0.996719 0.080944
vn 0.000000 -0.996719 0.080944
vn 0.999767 -0.001749 -0.021539
vn 0.999767 -0.001749 -0.021539
vn 0.999767 -0.001749 -0.021539
vn 0.999767 -0.001749 -0.021539
vn -0.999766 0.001749 0.021540
vn -0.999766 0.001749 0.021540
vn -0.999766 0.001749 0.021540
vn -0.999766 0.001749 0.021540
vn 0.021607 0.080924 0.996486
vn 0.021607 0.080924 0.996486
vn 0.021607 0.080924 0.996486
vn 0.021607 0.080924 0.996486
vn 0.000000 0.996719 -0.080944
vn 0.000000 0.996719 -0.080944
vn 0.000000 0.996719 -0.080944
vn 0.000000 0.996719 -0.080944
vn -0.021606 -0.080924 -0.996486
vn -0.021606 -0.080924 -0.996486
vn -0.021606 -0.080924 -0.996486
vn -0.021606 -0.080924 -0.996486
vn 0.000000 -0.996719 0.080943
vn 0.000000 -0.996719 0.080943
vn 0.000000 -0.996719 0.080943
vn 0.000000 -0.996719 0.080943
vn 0.999766 -0.001749 -0.021540
vn 0.999766 -0.001749 -0.021540
vn 0.999766 -0.001749 -0.021540
vn 0.999766 -0.001749 -0.021540
vn -0.999767 0.001749 0.021539
vn -0.999767 0.001749 0.021539
vn -0.999767 0.001749 0.021539
vn -0.999767 0.001749 0.021539
vn 0.021606 0.080924 0.996486
vn 0.021606 0.080924 0.996486
vn 0.021606 0.080924 0.996486
vn 0.021606 0.080924 0.996486
vn 0.000000 0.996719 -0.080943
vn 0.000000 0.996719 -0.080943
vn 0.000000 0.996719 -0.080943
vn 0.000000 0.996719 -0.080943
vn -0.021607 -0.080924 -0.996486
vn -0.021607 -0.080924 -0.996486
vn -0.021607 -0.080924 -0.996486
vn -0.021607 -0.080924 -0.996486
vn 0.000000 -0.996719 0.080943
vn 0.000000 -0.996719 0.080943
vn 0.000000 -0.996719 0.080943
vn 0.000000 -0.996719 0.080943
vn 0.999767 -0.001749 -0.021539
vn 0.999767 -0.001749 -0.021539
vn 0.999767 -0.001749 -0.021539
vn 0.999767 -0.001749 -0.021539
vn -0.999766 0.001749 0.021540
vn -0.999766 0.001749 0.021540
vn -0.999766 0.001749 0.021540
vn -0.999766 0.001749 0.021540
vn 0.021607 0.080924 0.996486
vn 0.021607 0.080924 0.996486
vn 0.021607 0.080924 0.996486
vn 0.021607 0.080924 0.996486
vn 0.000000 0.996719 -0.080943
vn 0.000000 0.996719 -0.080943
vn 0.000000 0.996719 -0.080943
vn 0.000000 0.996719 -0.080943
vn -0.021606 -0.080924 -0.996486
vn -0.021606 -0.080924 -0.996486
vn -0.021606 -0.080924 -0.996486
vn -0.021606 -0.080924 -0.996486
vn 0.000000 -0.996719 0.080943
vn 0.000000 -0.996719 0.080943
vn 0.000000 -0.996719 0.080943
vn 0.000000 -0.996719 0.080943
vn 0.999766 -0.001749 -0.021540
vn 0.999766 -0.001749 -0.021540
vn 0.999766 -0.001749 -0.021540
vn 0.999766 -0.001749 -0.021540
vn -0.999767 0.001749 0.021539
vn -0.999767 0.001749 0.021539
vn -0.999767 0.001749 0.021539
vn -0.999767 0.001749 0.021539
s off
g Escalera
usemtl initialShadingGroup
f 1/17/1 2/18/2 4/19/3 3/20/4
f 3/9/5 4/10/6 6/11/7 5/12/8
f 5/21/9 6/22/10 8/23/11 7/24/12
f 7/13/13 8/14/14 2/15/15 1/16/16
f 2/1/17 8/2/18 6/3/19 4/4/20
f 7/5/21 1/6/22 3/7/23 5/8/24
f 9/25/25 10/26/26 12/27/27 11/28/28
f 11/29/29 12/30/30 14/31/31 13/32/32
f 13/33/33 14/34/34 16/35/35 15/36/36
f 15/37/37 16/38/38 10/39/39 9/40/40
f 10/41/41 16/42/42 14/43/43 12/44/44
f 15/45/45 9/46/46 11/47/47 13/48/48
f 17/49/49 18/50/50 20/51/51 19/52/52
f 19/53/53 20/54/54 22/55/55 21/56/56
f 21/57/57 22/58/58 24/59/59 23/60/60
f 23/61/61 24/62/62 18/63/63 17/64/64
f 18/65/65 24/66/66 22/67/67 20/68/68
f 23/69/69 17/70/70 19/71/71 21/72/72
f 25/73/73 26/74/74 28/75/75 27/76/76
f 27/77/77 28/78/78 30/79/79 29/80/80
f 29/81/81 30/82/82 32/83/83 31/84/84
f 31/85/85 32/86/86 26/87/87 25/88/88
f 26/89/89 32/90/90 30/91/91 28/92/92
f 31/93/93 25/94/94 27/95/95 29/96/96
f 33/97/97 34/98/98 36/99/99 35/100/100
f 35/101/101 36/102/102 38/103/103 37/104/104
f 37/105/105 38/106/106 40/107/107 39/108/108
f 39/109/109 40/110/110 34/111/111 33/112/112
f 34/113/113 40/114/114 38/115/115 36/116/116
f 39/117/117 33/118/118 35/119/119 37/120/120
f 41/121/121 42/122/122 44/123/123 43/124/124
f 43/125/125 44/126/126 46/127/127 45/128/128
f 45/129/129 46/130/130 48/131/131 47/132/132
f 47/133/133 48/134/134 42/135/135 41/136/136
f 42/137/137 48/138/138 46/139/139 44/140/140
f 47/141/141 41/142/142 43/143/143 45/144/144
f 49/145/145 50/146/146 52/147/147 51/148/148
f 51/149/149 52/150/150 54/151/151 53/152/152
f 53/153/153 54/154/154 56/155/155 55/156/156
f 55/157/157 56/158/158 50/159/159 49/160/160
f 50/161/161 56/162/162 54/163/163 52/164/164
f 55/165/165 49/166/166 51/167/167 53/168/168
f 57/169/169 58/170/170 60/171/171 59/172/172
f 59/173/173 60/174/174 62/175/175 61/176/176
f 61/177/177 62/178/178 64/179/179 63/180/180
f 63/181/181 64/182/182 58/183/183 57/184/184
f 58/185/185 64/186/186 62/187/187 60/188/188
f 63/189/189 57/190/190 59/191/191 61/192/192
f 65/193/193 66/194/194 68/195/195 67/196/196
f 67/197/197 68/198/198 70/199/199 69/200/200
f 69/201/201 70/202/202 72/203/203 71/204/204
f 71/205/205 72/206/206 66/207/207 65/208/208
f 66/209/209 72/210/210 70/211/211 68/212/212
f 71/213/213 65/214/214 67/215/215 69/216/216
